<svg xmlns="http://www.w3.org/2000/svg" viewBox="0 0 350 105"><defs><style>.cls-1{fill:#e02727;}.cls-2{fill:#323333;fill-rule:evenodd;}</style></defs><title>资源 2100</title><g id="图层_2" data-name="图层 2"><g id="图层_1-2" data-name="图层 1"><path class="cls-1" d="M107.43,5.38h24.19a2.78,2.78,0,0,0,2.88-2.75A2.76,2.76,0,0,0,131.62,0H74.71a2.75,2.75,0,0,0-2.88,2.75,2.73,2.73,0,0,0,2.88,2.63h26.55L99,13.09l0,.11H82.77a11,11,0,0,0-3.62.61,9.13,9.13,0,0,0-5,4.53,7.27,7.27,0,0,0-.77,3.35v35.5a2.93,2.93,0,0,0,5.83,0V21.68a2.91,2.91,0,0,1,1.06-2.24,3.42,3.42,0,0,1,2.49-.94H91.3V57.12a2.93,2.93,0,0,0,5.82,0V18.51H109.2V57.12a2.93,2.93,0,0,0,5.83,0V18.51h8.46a3.61,3.61,0,0,1,2.58,1,2.9,2.9,0,0,1,1,2.22h0l0,23.26a6.55,6.55,0,0,1-2,4.84l-5.25,5A2.93,2.93,0,0,0,123.93,59l5.21-5A12.34,12.34,0,0,0,133,44.94l0-23.34h0a7.27,7.27,0,0,0-.76-3.26,9.08,9.08,0,0,0-5.06-4.53,10.42,10.42,0,0,0-3.61-.61H105l2.35-7.58A1.84,1.84,0,0,0,107.43,5.38Z"/><path class="cls-1" d="M59.32,34.1h-17c2.88-2.82,7.52-7.89,8.71-10a2.4,2.4,0,0,0,.37-1.24,2.8,2.8,0,0,0-2.95-2.63H9.63a2.64,2.64,0,1,0,0,5.25H42.88c-4,3.47-4.88,5.24-9,8.59h-30a2.66,2.66,0,1,0,0,5.31H32.07V45a6.52,6.52,0,0,1-2,4.75l-5.25,5a2.93,2.93,0,1,0,4,4.23l5.21-5a11.78,11.78,0,0,0,3.8-9.09V39.41H59.32a2.66,2.66,0,1,0,0-5.31Z"/><path class="cls-1" d="M56.28,7.94l1.09-4a1.77,1.77,0,0,0,0-.34A2.8,2.8,0,0,0,55.07,1S52.71.4,51.83,2.33c0,.09-.09.17-.13.26a2.65,2.65,0,0,0-.11.3L50.24,7.55l0,.07H34.68v-5A3,3,0,0,0,31.61,0a2.88,2.88,0,0,0-2.93,2.67v5H13.15v0l-1.36-4.7a2.3,2.3,0,0,0-.12-.32A3,3,0,0,0,8.06,1a2.94,2.94,0,0,0-2.2,2.71,1.25,1.25,0,0,0,.07.38L7,7.94c-4.15.92-7,4.19-7,8.12v1.2a2.8,2.8,0,0,0,3,2.66,2.78,2.78,0,0,0,2.93-2.66v-1.2a3.42,3.42,0,0,1,3.51-3.11H53.85a3.51,3.51,0,0,1,3.58,3.11v1.2a2.77,2.77,0,0,0,2.86,2.66h.14a2.79,2.79,0,0,0,2.93-2.66v-1.2C63.36,12.2,60.48,8.93,56.28,7.94Z"/><path class="cls-1" d="M290.38,15.34h-.15c-1.54,0-2.84,1-2.84,2.21,0,6.52-.23,12.39-.71,17.94-.4,4.47-.83,10.17-1.42,14.45a1.87,1.87,0,0,0,.44,1.47,2.86,2.86,0,0,0,2.11,1h.09l.41,0a2.68,2.68,0,0,0,2.77-2c.58-4.78,1.05-10.2,1.43-14.55.49-6.58.71-12.39.71-18.29C293.21,16.34,291.91,15.34,290.38,15.34Z"/><path class="cls-1" d="M308.42,8.28h-6.75V2.94A2.73,2.73,0,0,0,298.79.32h-.14a2.73,2.73,0,0,0-2.88,2.62V8.28h-6.61A2.85,2.85,0,0,0,286.29,11a2.76,2.76,0,0,0,2.88,2.62h6.61V57.22a2.73,2.73,0,0,0,2.88,2.63h.14a2.73,2.73,0,0,0,2.88-2.63V13.66h6.75a2.78,2.78,0,0,0,2.88-2.75A2.83,2.83,0,0,0,308.42,8.28Z"/><path class="cls-1" d="M306.85,15.44c-1.59,0-2.84,1-2.84,2.26V50.65c0,1.27,1.25,2.26,2.84,2.26h.07a2.6,2.6,0,0,0,2.83-2.26V17.71C309.76,16.46,308.49,15.44,306.85,15.44Z"/><path class="cls-1" d="M344.61,27.19a2.64,2.64,0,0,0,1.8,1.07,3,3,0,0,0,2.1-.35l.3-.11A2.75,2.75,0,0,0,350,26a2.29,2.29,0,0,0-.47-1.77l-7.69-10.44a2.74,2.74,0,0,0-1.83-1.1,2.94,2.94,0,0,0-2.1.35l-.28.11a2.6,2.6,0,0,0-1.16,1.72,2.5,2.5,0,0,0,.45,2l3.67,5a3.39,3.39,0,0,0-.29.43c-1.72,3.13-3.55,6.19-5.46,9.07l-.62.92c-.65,1-1.26,1.86-1.91,2.75L322,23.28l-.06-.06a62.29,62.29,0,0,0,4.43-6.54,2.38,2.38,0,0,0,.28-1.93A2.85,2.85,0,0,0,325.21,13l-.26-.05A3.12,3.12,0,0,0,321.24,14a68.6,68.6,0,0,1-7.27,10,2.5,2.5,0,0,0-.67,1.87,2.57,2.57,0,0,0,1,1.87,3.36,3.36,0,0,0,2.17.58,3.13,3.13,0,0,0,1.83-.85l10.49,12c-4.2,5.23-8.68,11.35-13.72,15.67a2.68,2.68,0,0,0-.91,1.94A2.46,2.46,0,0,0,315,59a3.17,3.17,0,0,0,2,.81,3.12,3.12,0,0,0,2.05-.7A118.19,118.19,0,0,0,332.6,44.9l0,0,11.87,14a2.92,2.92,0,0,0,2.22.95,3.26,3.26,0,0,0,1.9-.61,2.56,2.56,0,0,0,1.12-1.83,2.37,2.37,0,0,0-.68-1.86L336.13,39.37a140.6,140.6,0,0,0,8.11-12.67Z"/><path class="cls-1" d="M347,6H334.1V2.63a2.67,2.67,0,0,0-5.34,0V6h-12.5a2.6,2.6,0,0,0-2.63,2.56v.14a2.6,2.6,0,0,0,2.63,2.63H347a2.6,2.6,0,0,0,2.64-2.63V8.6A2.6,2.6,0,0,0,347,6Z"/><path class="cls-1" d="M239.75,29.32A76.1,76.1,0,0,0,245,14.44a2.17,2.17,0,0,0-.51-2,2.39,2.39,0,0,0-1.89-1.11,2.88,2.88,0,0,0-3.33,2,69.1,69.1,0,0,1-3.22,10.06l-6.1-10a3.09,3.09,0,0,0-1.76-1.25,3.46,3.46,0,0,0-2.28.31,2.58,2.58,0,0,0-1.34,1.64,2.44,2.44,0,0,0,.36,2l8.26,13.58a81.09,81.09,0,0,1-9,13.56,2.46,2.46,0,0,0-.47,1.88A2.74,2.74,0,0,0,225,46.91l.07,0a3,3,0,0,0,1.58.45A2.79,2.79,0,0,0,229,46.25a78,78,0,0,0,7.61-11l3.46,5.56A2.53,2.53,0,0,0,241.8,42a2.72,2.72,0,0,0,2.29-.29,2.59,2.59,0,0,0,1.36-1.54,2.49,2.49,0,0,0-.21-2Z"/><path class="cls-1" d="M268.22,43.19l-6.94-13a78.08,78.08,0,0,0,5.48-15.73,2.14,2.14,0,0,0-.43-2,2.5,2.5,0,0,0-1.89-1.11,2.9,2.9,0,0,0-3.33,2,73.26,73.26,0,0,1-3.32,10.32L252.1,12.93a2.84,2.84,0,0,0-1.72-1.42,3.26,3.26,0,0,0-2.14.21,2.49,2.49,0,0,0-1.52,1.47,2.41,2.41,0,0,0,.16,2l7.86,14.86a87.63,87.63,0,0,1-8.67,13.13,2.52,2.52,0,0,0-.48,1.95,2.57,2.57,0,0,0,1.13,1.69l.13.11a3,3,0,0,0,1.63.48,3,3,0,0,0,2.34-1.1A92.24,92.24,0,0,0,258,36.09l5,9.37A2.88,2.88,0,0,0,265.58,47h0a3.18,3.18,0,0,0,1.23-.25l.15-.1a2.58,2.58,0,0,0,1.41-1.48A2.37,2.37,0,0,0,268.22,43.19Z"/><path class="cls-1" d="M266.18,0H225.32a9.72,9.72,0,0,0-9.72,9.7v47a3.14,3.14,0,0,0,6.28,0V9.7a3.44,3.44,0,0,1,3.44-3.43h40.86a4.21,4.21,0,0,1,4.21,4.2v34.6a6.09,6.09,0,0,1-1.94,4.45l-5.22,4.84a3.14,3.14,0,0,0,4.27,4.6l5.23-4.84a12.38,12.38,0,0,0,4-9V10.48A10.5,10.5,0,0,0,266.18,0Z"/><path class="cls-1" d="M201.54,28.42a7.15,7.15,0,0,0,.77-3.3V8.55a7,7,0,0,0-.77-3.35,9.4,9.4,0,0,0-5-4.54A11.08,11.08,0,0,0,192.94,0H156.71a11.05,11.05,0,0,0-3.62.68,8.86,8.86,0,0,0-5,4.49,6.37,6.37,0,0,0-.86,3.39V25.12a6.4,6.4,0,0,0,.83,3.27,8.11,8.11,0,0,0,5,4.47,8.24,8.24,0,0,0,3.65.69h36.23a8.51,8.51,0,0,0,3.6-.67A8.56,8.56,0,0,0,201.54,28.42Zm-8.6-.12H177.49v-9h19v5.85a2.86,2.86,0,0,1-1,2.16A3.78,3.78,0,0,1,192.94,28.3Zm3.54-19.74V14h-19V5.38h15.45a3.7,3.7,0,0,1,2.5,1A2.82,2.82,0,0,1,196.48,8.55ZM171.59,19.27v9H156.71a3.63,3.63,0,0,1-2.5-1,3,3,0,0,1-1.11-2.16V19.27ZM156.71,5.38h14.88V14H153.1V8.55a2.88,2.88,0,0,1,1.11-2.22A3.61,3.61,0,0,1,156.71,5.38Z"/><path class="cls-1" d="M151.58,34.55h-.07a2.83,2.83,0,0,0-3.23,2.22,69.94,69.94,0,0,1-2,9.22c-1,3.12-2,5.77-3,8.09a2.29,2.29,0,0,0-.07,1.87,2.75,2.75,0,0,0,1.6,1.54l.15,0a2.61,2.61,0,0,0,1.09.24,3.38,3.38,0,0,0,1.15-.22,2.7,2.7,0,0,0,1.6-1.44C150,53,151,50.26,151.86,47.58a72.38,72.38,0,0,0,2.22-10.05,2.45,2.45,0,0,0-.5-2A2.71,2.71,0,0,0,151.58,34.55Z"/><path class="cls-1" d="M206.2,54.65l-6-18.32a2.9,2.9,0,0,0-2.74-1.81,2.35,2.35,0,0,0-.66.08h-.19A2.82,2.82,0,0,0,194.72,36a2.44,2.44,0,0,0-.14,2l6,18.24a2.88,2.88,0,0,0,2.72,1.89,3,3,0,0,0,.84-.12l0,0A2.73,2.73,0,0,0,206,56.62,2.31,2.31,0,0,0,206.2,54.65Z"/><g id="_编组_" data-name="&lt;编组&gt;"><g id="_编组_2" data-name="&lt;编组&gt;"><g id="_编组_3" data-name="&lt;编组&gt;"><path class="cls-1" d="M191,48.94c.11-.44.19-.88.26-1.33a11.44,11.44,0,0,0-9.65-13,9.16,9.16,0,0,0-10.4,7.69,7.41,7.41,0,0,0,6.27,8.43,2.38,2.38,0,1,0,.7-4.71,2.65,2.65,0,0,1-1.75-1,2.61,2.61,0,0,1-.49-2,4.38,4.38,0,0,1,5-3.68,6.68,6.68,0,0,1,5.63,7.58,9.78,9.78,0,0,1-11.1,8.22,13.9,13.9,0,0,1-11.72-15.77,2.39,2.39,0,0,0-4.72-.7,18.68,18.68,0,0,0,15.75,21.19A14.56,14.56,0,0,0,191,48.94Z"/></g></g></g><path class="cls-2" d="M81.08,82.26a2.67,2.67,0,0,0,.46-.15,2.85,2.85,0,0,0,.91-.59A25.13,25.13,0,0,0,84,79.25a2.24,2.24,0,0,0,.13-.78,2.31,2.31,0,0,0-.7-.06c-1.2.26-2.38.57-3.57.83s-2.58.52-3.88.75a2.21,2.21,0,0,1-.91-.06c.77-.47,1.24-1.3,2.2-1.5,1.53-.31,3-.72,4.57-1.09l2.92-.7a2.9,2.9,0,0,0,2-1.16,5.67,5.67,0,0,0,.65-2c0-.69.06-1,.59-1.27.52-.11.78.6.74,1-.29,2.93,1.21,1.84,2.49,1.77a8.92,8.92,0,0,1,1.68,0,2.12,2.12,0,0,1,1,.49.52.52,0,0,1-.25,1,7,7,0,0,1-1.78.05,12.07,12.07,0,0,0-3.36.36,3.65,3.65,0,0,0-2.4,2c-.61,1-1.19,2-1.86,2.94a6.08,6.08,0,0,0-1.08,3.54,35.34,35.34,0,0,1-.86,6.52,15.86,15.86,0,0,1-.85,3.36,6.32,6.32,0,0,0-.27,1.66c-.14,1-.25,2-.43,3-.11.61-.54,1-.9.93s-.57-.55-.52-1.2a32.27,32.27,0,0,1,.88-4.7c.24-1,.39-2,.58-3l.57-3a4,4,0,0,0,.09-.56c0-.31.08-.74-.31-.78a1,1,0,0,0-.74.45C79.21,89.57,78.12,91.33,77,93c-.89,1.32-1.86,2.58-2.78,3.88-.27.38-.48.81-.77,1.18-.56.71-1.14,1.4-1.76,2.06a1.65,1.65,0,0,1-.82.43c-.24,0-.64,0-.75-.16a1.65,1.65,0,0,1-.06-.87c0-.1.14-.23.25-.27,1.54-.64,2.08-2.19,3-3.38s1.65-2.45,2.45-3.68A18.11,18.11,0,0,0,77,90.14a35.57,35.57,0,0,1,2.89-4.27,19.13,19.13,0,0,0,1.38-2.44C81.36,83.16,81.16,82.75,81.08,82.26Z"/><path class="cls-2" d="M92.82,95.27c.67.13,1.13-.28,1.65-.43.78-.23,1.55-.47,2.34-.65a3.8,3.8,0,0,1,1,.11c-.23.25-.3.39-.42.45-1,.51-2,1-3,1.52-1.26.68-2.49,1.44-3.76,2.11a9.7,9.7,0,0,1-1.84.67.67.67,0,0,1-.87-.37.74.74,0,0,1,.39-.95,1.08,1.08,0,0,1,.24-.15A3.71,3.71,0,0,0,90.78,95c.66-1.59,1.31-3.17,1.93-4.77a1,1,0,0,0,0-.78c-.24-.31-.62-.16-.94,0-.94.49-1.87,1-2.84,1.45s-2.1.81-3.17,1.17c-.32.11-.83.24-1-.23s.32-.6.69-.72a55.2,55.2,0,0,0,6.48-3,1.05,1.05,0,0,0,.61-1.08,2.33,2.33,0,0,1,.47-1.5c.31-.44.63-.47,1-.11a4.74,4.74,0,0,1,.34.45.63.63,0,0,0,.83.21c.31-.14.64-.25,1-.37s.63-.12.82.22-.07.54-.28.71a3.3,3.3,0,0,1-.92.64,1.93,1.93,0,0,0-1.15,1.5c-.26.86-.49,1.74-.76,2.6s-.56,1.59-.87,2.38A1.78,1.78,0,0,0,92.82,95.27Z"/><path class="cls-2" d="M123.75,90.82c-.29.29-.85,1-1.06,1.29-.58.74-1.1,1.53-1.69,2.27a2.88,2.88,0,0,1-1,.81c-.85.41-1.23-.31-1.13-1.37.16,0,.17.27.33.3a.68.68,0,0,0,.79-.37c.12-.2.25-.38.37-.58.66-1,1.29-2.07,2-3.1a1.8,1.8,0,0,0,.15-2.08c-.37-.64-.63-1.34-.94-2a3.86,3.86,0,0,0-.33-.48,1.15,1.15,0,0,0-.85.7,18.23,18.23,0,0,1-3.09,3.87c-.14.14-.28.34-.45.38s-.15.09-.38,0-.27-.47-.27-.73a2.69,2.69,0,0,1,.68-1.63c1-1.18,1.89-2.19,3-3.29s.67-1.89.17-3.36c-.12-.35-.24-.7-.38-1-.21-.52-.38-.61-.92-.47a2.61,2.61,0,0,0-.61.29,2.8,2.8,0,0,1-1.63.4c-.36,0-.66-.18-.65-.54,0-.17.3-.38.49-.48.51-.25,1.08-.4,1.58-.67.83-.46.94-.76.64-1.68s-.58-1.6-.87-2.41a2.07,2.07,0,0,1-.17-.56c0-.3,0-.71.35-.77a1.11,1.11,0,0,1,.84.23,3.59,3.59,0,0,1,.72,1.06c.33.69.63,1.4.92,2.11a.86.86,0,0,0,1,.59,9.73,9.73,0,0,1,1.36-.09c.87,0,1.19.43,1.27,1.29A5.16,5.16,0,0,1,122.81,82a1.73,1.73,0,0,0-.24,1.61,13.26,13.26,0,0,0,1.12,2.85c.15.23.32.46.55.78l1.49-2c.33-.43.66-.87,1-1.27a1.72,1.72,0,0,1,.61-.45c.51-.22.81,0,.69.55a4,4,0,0,1-1.31,2.25A8.17,8.17,0,0,0,125,88.77a1.28,1.28,0,0,0,0,.91,70.78,70.78,0,0,0,3.16,8.13c.67,1.42,1.39,2.8,2.1,4.2.29.58.63,1.15.92,1.73s.2.95-.13,1.15a1.12,1.12,0,0,1-1.26-.22,3.22,3.22,0,0,1-.35-.49c-.29-.46-.4-.93-.68-1.39a1.82,1.82,0,0,1-.21-.37c-.53-2.1-1.75-3.71-2.57-5.66-.51-1.21-.83-2.46-1.33-3.67C124.48,92.56,124.3,91.32,123.75,90.82Zm-.86-11.6a.64.64,0,0,0-.7-.68c-.42,0-.64.26-.61.73s.38,1,.73,1S122.89,79.81,122.88,79.22Z"/><path class="cls-2" d="M113.91,75.72a.52.52,0,0,1,0,.78,10.16,10.16,0,0,1-2.37,2.19,14.47,14.47,0,0,0-1.17.86,5.1,5.1,0,0,0-.59.77l1,.11a1.5,1.5,0,0,1,1.39,2.13,14.28,14.28,0,0,1-1.2,2.25c-.37.61-.82,1.17-1.19,1.78s-.28.77.33,1a8.82,8.82,0,0,1,1,.49c.46.26.62.26.93-.17a4.74,4.74,0,0,0,.43-.82c.26-.57,1.29-2.45,1.58-3a6.84,6.84,0,0,1,1.27-1.74c-.06.36-.58,1.64-.7,2-.7,2-2.38,5.09-2.84,6.31-.33.85-.44,1.47-.8,2.31-.16.36-.37.65-.83.61s-.49-.35-.5-.84a3.14,3.14,0,0,1,.17-1c.19-.59.62-1.18.8-1.78s.11-.84-.62-.95a12.67,12.67,0,0,1-1.35-.48.74.74,0,0,1-.61-1,3.53,3.53,0,0,1,.44-1.19c.57-.85,1.07-1.37,1.64-2.21a17.22,17.22,0,0,0,1.13-2,.49.49,0,0,0-.49-.76c-.55,0-1,.12-1.64.21a5.46,5.46,0,0,1-1.83.3c-.36,0-.69,0-.82-.35a.85.85,0,0,1,.31-1,8.45,8.45,0,0,1,.66-.54c1.87-1.29,3.74-2.59,5.63-3.87A6.54,6.54,0,0,1,113.91,75.72Z"/><path class="cls-2" d="M128.35,74.3c-.2-.19-.38-.3-.45-.46a4.84,4.84,0,0,1-.51-1.26,9.33,9.33,0,0,0-1.46-3.06c-.17-.27-.33-.53-.48-.8s-.2-.5.06-.7.49,0,.66.18a13.44,13.44,0,0,1,1.26,1.7,8.15,8.15,0,0,1,1.1,3A1.79,1.79,0,0,1,128.35,74.3Z"/><path class="cls-2" d="M154.64,92.67c-1-1.09-1.87-2.1-2.79-3a6.31,6.31,0,0,1-1.47-2.93,1.9,1.9,0,0,1,.51-1.32,25.59,25.59,0,0,1,1.85-2.06,11.62,11.62,0,0,0,1.86-2.9c-.83-.55-1.66-.19-2.42,0a20.08,20.08,0,0,0-2.29.72c-.24-.54.07-.77.42-1a7,7,0,0,1,4.08-.88,3.14,3.14,0,0,1,1.06.3.64.64,0,0,1,.37.91,6.45,6.45,0,0,1-.31.78,11.75,11.75,0,0,1-2.43,3.33,6.62,6.62,0,0,0-.84.85A1.77,1.77,0,0,0,152,87.7a6.71,6.71,0,0,0,1.16,1.51,19.05,19.05,0,0,1,1.42,1.65c.39.43.82.81,1.29,1.26,1.55-.88,3-1.71,4.54-2.56a28.14,28.14,0,0,1,4.33-2.4l.15.21A16.73,16.73,0,0,1,163,89.05a39.76,39.76,0,0,0-3.4,2.36c-.88.71-1.88,1.28-2.85,1.92.14.36.26.64.34.92a3.76,3.76,0,0,1-.8,3.63,11.33,11.33,0,0,1-2.25,2.29,2,2,0,0,1-2.74-.15,18.35,18.35,0,0,1-1.32-1.4,9.53,9.53,0,0,1-.87-1.41.8.8,0,0,1,.2-1,8.08,8.08,0,0,1,1.95-1.39C152.34,94.16,153.41,93.45,154.64,92.67Zm.88,1.31c-1.39.91-2.75,1.77-4.09,2.66-.52.35-.56.75-.24,1.34a4.21,4.21,0,0,0,1.56,1.51,3.73,3.73,0,0,0,.91-.54,20.65,20.65,0,0,0,1.47-1.77,3.87,3.87,0,0,0,.71-1.15A2.37,2.37,0,0,0,155.52,94Z"/><path class="cls-2" d="M142.41,78.75l.63-.22a4.82,4.82,0,0,1,.56,2,29.08,29.08,0,0,1,0,5.52,22,22,0,0,0,0,2.21c0,.8-.08,1.6-.13,2.4,0,.28-.2.63.32.69.08,0,.17.38.16.56,0,.42-.16.84-.25,1.27s-.18.91-.24,1.36a.87.87,0,0,1-.92.82c-.35,0-.6-.4-.57-.92.08-1.38.2-2.77.23-4.15s0-2.84,0-4.25c0-1.2.13-2.39.16-3.59S142.41,80.07,142.41,78.75Z"/><path class="cls-2" d="M145.21,73.71c1.09.51,1.16,1.46,1.58,2.13.68-.07.53-.79,1-1.13,0,.13.11.23.1.31-.22,1-.42,2-.71,2.92-.07.24-.4.4-.61.6-.18-.19-.46-.36-.51-.58-.29-1.09-.54-2.19-.78-3.29A7.1,7.1,0,0,1,145.21,73.71Z"/><path class="cls-2" d="M158.39,72.3a3.67,3.67,0,0,1,.42,2.15c0,.12-.18.32-.32.39a2.44,2.44,0,0,1-.87.29,20.89,20.89,0,0,0-4.18,1,2,2,0,0,1-.54,0c.43-.63,1.12-.71,1.65-1,.78-.41,1.63-.71,2.45-1a1.78,1.78,0,0,0,1-1C158.08,72.82,158.21,72.64,158.39,72.3Z"/><path class="cls-2" d="M150.28,72.51a2.13,2.13,0,0,1,1.64.89c.35.38.64.51,1.1.23a2.88,2.88,0,0,1,.82-.19,2.53,2.53,0,0,1-1.49,1.35.74.74,0,0,1-1-.46,1.6,1.6,0,0,0-.64-.94C150.49,73.24,150.45,72.89,150.28,72.51Z"/><path class="cls-2" d="M233,81.46a1.84,1.84,0,0,1,2.48-.55,4.08,4.08,0,0,1,2.13,3.32c.11,1.32-.17,2.65.21,4a5.88,5.88,0,0,1,0,1.38c.05,1.2.13,2.4.18,3.6a4.39,4.39,0,0,1,0,.73c0,.37-.12.73-.14,1.1,0,1.23,0,2.46-.1,3.69a1.82,1.82,0,0,1-.3.85.71.71,0,0,1-1.11.19,2,2,0,0,1-.36-.42A10.36,10.36,0,0,1,234,95.55a8.43,8.43,0,0,0-.63-1.54.86.86,0,0,1,0-1l2.49,3.71c.51-1.12.54-7.11,0-8.08-.26.22-.53.42-.76.66A15.35,15.35,0,0,1,231.86,92a1.54,1.54,0,0,0-.66,1.45c0,1.28-.62,2.38-.81,3.59a.67.67,0,0,1-.68.64.72.72,0,0,1-.7-.73,3,3,0,0,1,.07-.92c.21-.93.49-1.84.66-2.77.38-2.19.7-4.38,1.08-6.56a.65.65,0,0,0-.49-.85l-1.07-.35c.07-.28.12-.48.19-.75l1.58.1c.38-1.27.35-2.72,1.36-3.86Zm2.93,4-3.12.53c-.45.08-.54.41-.57.82-.07.79-.21,1.58-.29,2.38a2.77,2.77,0,0,0,.05,1.6c.58-.45,1.11-.88,1.66-1.29s1.26-.89,1.84-1.38a1.35,1.35,0,0,0,.51-.8A12.2,12.2,0,0,0,235.9,85.44Zm-3.28-.55a5.33,5.33,0,0,0,2.73-.18.7.7,0,0,0,.56-.74,2,2,0,0,0-2-2.25,1,1,0,0,0-1.06.71C232.72,83.24,232.68,84.06,232.61,84.89Z"/><path class="cls-2" d="M229.77,76.6l-2.27.74c-1.44.46-2.87,1-4.32,1.37a2.93,2.93,0,0,1-1.26,0c-.5-.09-.61-.45-.46-1,.14,0,.29,0,.36.06.46.39.89.2,1.37,0q1.76-.69,3.55-1.3,1.52-.52,3.09-.92a1,1,0,0,0,.71-.65c.51-1.32,1-2.65,1.5-4,.21-.57.55-.86.91-.74a1.06,1.06,0,0,1,.55,1.23,8.65,8.65,0,0,0-.31,1.44,1.54,1.54,0,0,0,1.88,1.84,10.47,10.47,0,0,1,1.28-.18,5.68,5.68,0,0,1,1.43.22.6.6,0,0,1,.31.49c0,.14-.23.35-.41.4a4.19,4.19,0,0,1-1,.16c-1.38.08-2.77.19-4.15.21a1.21,1.21,0,0,0-1.22,1c-.31,1-.64,1.94-1,2.9-.76,2.27-1.52,4.54-2.29,6.81-.25.75-.56,1.48-.79,2.24-.68,2.21-1.3,4.44-2,6.64-.41,1.29-.94,2.54-1.39,3.82-.27.78-.47,1.59-.72,2.38a2,2,0,0,1-.24.59.61.61,0,0,1-.79.29.58.58,0,0,1-.41-.73c.26-1,.52-2,.85-3,.62-1.87,1.33-3.71,1.93-5.59.51-1.58.89-3.2,1.38-4.79.27-.88.66-1.72,1-2.59.21-.58.34-1.19.53-1.77.73-2.23,1.47-4.45,2.19-6.67C229.64,77.3,229.67,77.06,229.77,76.6Zm2.77-2.78-.4,1.16,1.08-.21Z"/><path class="cls-2" d="M172.3,75.72c.08,0,.16,0,.2,0a2.63,2.63,0,0,0,2.27.1c1.08-.24,2.14-.61,3.21-.88s2.08-.51,3.13-.7a1.76,1.76,0,0,1,2.06,1.17c.06.14.05.33.14.44.83,1,.64,2.21.54,3.37,0,.28-.07.56-.07.83,0,2.81-.39,5.6-.51,8.39a31.42,31.42,0,0,1-.58,4.47c-.2,1.05-.25,2.14-.38,3.21a14.54,14.54,0,0,1-.31,1.82,1,1,0,0,1-1.75.55c-.55-.39-1.14-.73-1.65-1.17a5.35,5.35,0,0,1-1.12-1.22c-.62-1-1.18-2-1.74-3a1.7,1.7,0,0,1-.18-.88c1.48,1.7,2.88,3.46,5,4.53a2.63,2.63,0,0,0,.33-1.5,9.53,9.53,0,0,1,.09-1.84c.14-.95.38-1.88.51-2.82s.21-2,.29-3c.15-1.84.31-3.68.43-5.53.08-1.16.13-2.33.15-3.5a13.18,13.18,0,0,0-.11-2.1,2,2,0,0,0-.46-1,.86.86,0,0,0-.71-.26c-1.55.36-3.09.78-4.64,1.18q-1.16.29-2.33.55a2.22,2.22,0,0,1-1.55-.43A.48.48,0,0,1,172.3,75.72Z"/><path class="cls-2" d="M179.77,83.65c0,.66-.59.68-.8.78-.46.66-.77,1.17-1.14,1.63-.72.88-1.47,1.73-2.22,2.59s-1.25,1.44-1.91,2.13a1.46,1.46,0,0,1-.78.41.78.78,0,0,1-.58-.35c-.07-.1,0-.41.17-.55,1.34-1.46,2.7-2.91,4.08-4.4-.63-.22-.07-.85-.33-1.38l-1.74-.06-2.66-.12a4.12,4.12,0,0,0-.62,0c-.59.07-.83-.16-.93-1,.43,0,.83-.32,1.27,0,.08.07.29,0,.44,0a11,11,0,0,1,3.85.25c1.09.24,1.34.67,1.05,1.87a5.58,5.58,0,0,0,1.48-1,2.34,2.34,0,0,1,1.38-.85Z"/><path class="cls-2" d="M266.72,91.49c-.27.63-.55,1.18-.75,1.75a6.43,6.43,0,0,1-3.61,3.88,2.8,2.8,0,0,1-2.14-.26c-.63-.23-1.24-.52-1.86-.78-.08,0-.18-.05-.26-.1l-3.55-2-1.28-.75c-.32.67-.65,1.25-.89,1.87a8.2,8.2,0,0,1-1.59,2.27c-.57.66-1.23.49-1.59-.34,1.65-.91,2.14-2.59,2.71-4.2.18-.51-.25-.94-.67-1.16s-.58-.62-.51-1.25l1.92,1.11.4-1c.45-1.14.89-2.3,1.37-3.43.1-.24.4-.39.6-.58a.85.85,0,0,1,.34,1.12c-.33.86-.51,1.77-.81,2.64-.19.58-.48,1.13-.77,1.8.62.4,1.18.82,1.79,1.16.78.43,1.59.79,2.39,1.2a1.38,1.38,0,0,0,1.47.09c.52-.32,1-.25,1.23.27.36.72,1.08.62,1.64.82.2.07.6-.24.83-.47A7.94,7.94,0,0,0,265,92.36a3.47,3.47,0,0,1,.32-.77c.78-1.14.25-2.14-.45-3a10,10,0,0,1-1.18-2.08c-.21-.44-.44-.87-.68-1.29-.14-.24-.16-.23-.09-.79a1,1,0,0,1,.84.57c.76,1.18,1.55,2.34,2.34,3.51,0,.06.14.1.29.2l2.75-8c-.79.32-1.43.59-2.08.84a7.82,7.82,0,0,1-1.23.38,2.27,2.27,0,0,1-2.43-1.4,13.49,13.49,0,0,1-.86-3.77,1.5,1.5,0,0,1,.5-1.46,12.8,12.8,0,0,1,.58,1.41c.28,1,.48,1.92.74,2.87s.78,1.34,1.76,1.05,2.21-.76,3.32-1.14c1.28-.44,2.56-.88,3.84-1.31.3-.1.73-.33.89.1s-.27.59-.63.73c-.92.35-1.83.73-2.74,1.1-.25.1-.5.23-.74.34-.28,1.39-.51,2.76-.85,4.09-.19.74-.56,1.43-.81,2.15-.33.93-.62,1.87-.93,2.8a1,1,0,0,0,.31,1.09c.87.82,1.75,1.63,2.62,2.44a2.16,2.16,0,0,1,.21.18c1.19,1.34,2.86,2.08,4.18,3.26a.91.91,0,0,0,.67.26,6.8,6.8,0,0,1,3.08.39,6.34,6.34,0,0,1,.89.27c.37.14.67.35.56.82a.8.8,0,0,1-1,.65,6.12,6.12,0,0,1-1.07-.28,7.61,7.61,0,0,0-3.08-.43,1.43,1.43,0,0,1-1.15-.44c-1.1-1-2.31-1.85-3.4-2.83s-2-2-3-3A3.78,3.78,0,0,0,266.72,91.49Z"/><path class="cls-2" d="M252.13,81.92a4.28,4.28,0,0,1-.26,2.49c-.54,1.64-1.1,3.27-1.65,4.9-.3.92-.57,1.85-.91,2.76a2.47,2.47,0,0,1-.6.9A.71.71,0,0,1,248,93a.77.77,0,0,1-.19-.64,6.61,6.61,0,0,1,.34-1.14c.79-2.27,1.57-4.54,2.39-6.79a21.13,21.13,0,0,1,1-2.17C251.62,82.13,251.88,82.07,252.13,81.92Z"/><path class="cls-2" d="M246.25,81.54a7.14,7.14,0,0,1,3.37-1.73c1.56-.47,3.11-1,4.68-1.41.68-.2,1.38-.32,2.07-.46a.43.43,0,0,1,.57.33c.07.32-.16.45-.4.52-.56.15-1.13.3-1.69.43-.29.07-.6.09-.88.19-1.93.64-3.85,1.31-5.78,1.94A3.47,3.47,0,0,1,246.25,81.54Z"/><path class="cls-2" d="M255.92,85.77a5.75,5.75,0,0,1-1.06.08.74.74,0,0,1-.54-.35c-.12-.3.16-.42.42-.47.68-.15,1.37-.31,2.05-.43a8.43,8.43,0,0,0,2.37-.71.54.54,0,0,1,.36-.05,5,5,0,0,1,.64.25c-.09.21-.12.51-.28.61a4.78,4.78,0,0,1-1.26.54c-.89.24-1.78.42-2.68.62A.62.62,0,0,1,255.92,85.77Z"/><path class="cls-2" d="M251.3,74.08c1,.77,1.83,1.44,2.69,2.1.22.17.51.26.42.63s-.42.39-.73.37-.67,0-.87-.4a.79.79,0,0,0-.41-.35c-.79-.25-1-1-1.44-1.58S251,74.21,251.3,74.08Z"/><path class="cls-2" d="M200.44,93.17l2.65,1.48c.88.49,1.75,1,2.65,1.48a5.31,5.31,0,0,0,1.38.48,20.43,20.43,0,0,1,3.55,1.26c.59.24,1.24.33,1.85.53a4.41,4.41,0,0,1,.83.38.66.66,0,0,1,.29.8.6.6,0,0,1-.7.48,1.06,1.06,0,0,1-.46,0c-.87-.45-1.85-.57-2.73-1-1-.52-2.17-.86-3.25-1.3-.59-.24-1.15-.56-1.73-.84a1.29,1.29,0,0,0-.16-.09,24.3,24.3,0,0,1-4-2.28c-.77-.51-.93-.41-1.48.37s-.9,1.51-1.77,1.82c-.68.24-1.4.66-2.12-.06,1.87-.14,2.68-1.54,3.63-2.95-.77-.57-1.19-1.49-2.18-1.79a1.93,1.93,0,0,1-.68-.46c-.27-.24-.51-.52-.77-.77s-.45-.46-.05-.79l.5.25a2,2,0,0,0,.13-.29c.3-1-.07-2,0-3,.08-.85.07-1.73.15-2.59a23.81,23.81,0,0,0-.19-4.88c-.07-.67-.16-1.34-.18-2,0-.19.17-.4.26-.6.17.1.41.15.49.31a6.31,6.31,0,0,1,.71,1.56,15.47,15.47,0,0,1,.41,2.88c0,1.54-.08,3.08-.1,4.62a9.13,9.13,0,0,0,.12,1.07,4.72,4.72,0,0,1,0,.61c0,.79-.1,1.59-.07,2.38a2.86,2.86,0,0,0,1.84,2.29A12.16,12.16,0,0,0,201.11,88a1.78,1.78,0,0,0-.38.24c-.21.23-.49.39-.69.09a.85.85,0,0,1,0-.74,8.39,8.39,0,0,1,1-1c-.53-.4-1-.8-1.5-1.12s-1.07-.56-1.55-.8a.75.75,0,0,1,.71-.86,15.11,15.11,0,0,0,3.83-1.28A1,1,0,0,0,203,82c.13-.57.16-1.15.25-1.84-1.8.06-3.39.88-5.13,1.05a.69.69,0,0,1,.59-.77c1.3-.35,2.6-.71,3.91-1,.44-.09.6-.29.6-.66a7,7,0,0,0-.1-1.18c-.1-.68,0-.93.61-1.24.75.59.58,1.55.93,2.38l3.18-.45a4.77,4.77,0,0,1,3.07.22,3,3,0,0,1-.76,2.17c-.63.72-1.23,1.46-1.82,2.21a38.1,38.1,0,0,1-4.67,4.58s0,0-.07.05c-1.27.53-1.51,1.78-2,2.87C201.23,91.25,200.86,92.16,200.44,93.17Zm4.16-13.59a5.39,5.39,0,0,0,.12,2.12c.47-.06.89-.13,1.31-.17.57-.05.67,0,.8.63,0,.14,0,.28,0,.42.9-1.15,2.19-2,2.64-3.46C207.74,78.64,206.25,79.43,204.59,79.58Zm-.87,5.21A5.81,5.81,0,0,0,206,82.37C204.66,82.22,203.76,83.27,203.72,84.79Zm-1.14-1.19a5,5,0,0,0-2.27,1l1.58.9Z"/><path class="cls-2" d="M198.11,73c.36,0,.54,0,.72,0,1,0,2.06.09,3.1.1a10.13,10.13,0,0,0,1.25-.16,1.24,1.24,0,0,1,.53,0c.14.05.33.2.34.33a.49.49,0,0,1-.21.42,7.34,7.34,0,0,1-1.7.36,17.1,17.1,0,0,1-2.49-.15A1.58,1.58,0,0,1,198.11,73Z"/></g></g></svg>